# Blender 3.5.1
# www.blender.org
o flag.002
v 0.129729 -0.055924 0.196055
v 0.129824 -0.064047 0.196867
v 0.129386 -0.055924 0.196867
v 0.129777 -0.061668 0.196293
v 0.129551 -0.060614 0.196398
v 0.129534 -0.061668 0.196867
v 0.129467 -0.055924 0.196293
v 0.129824 0.060913 0.196067
v 0.129386 0.052690 0.196055
v 0.129514 0.058463 0.196058
v 0.138896 -0.064047 0.196867
v 0.138909 -0.055924 0.196055
v 0.139334 -0.055924 0.196867
v 0.138903 -0.061668 0.196293
v 0.139152 -0.060614 0.196398
v 0.139210 -0.055924 0.196292
v 0.139206 -0.061668 0.196867
v 0.142642 0.055654 0.197179
v 0.142785 0.055783 0.195598
v 0.142335 0.063802 0.196399
v 0.142743 0.055719 0.196398
v 0.142677 0.060421 0.196408
v 0.142653 0.061493 0.195994
v 0.142572 0.061426 0.196841
v 0.129824 -0.064047 0.214223
v 0.129824 -0.055924 0.215035
v 0.129386 -0.055924 0.214223
v 0.129824 -0.061668 0.214797
v 0.129571 -0.060614 0.214692
v 0.129514 -0.055924 0.214797
v 0.129514 -0.061668 0.214223
v 0.129824 0.052690 0.215035
v 0.129824 0.060812 0.214223
v 0.129386 0.052690 0.214223
v 0.129824 0.058433 0.214797
v 0.129571 0.057379 0.214692
v 0.129514 0.058433 0.214223
v 0.129514 0.052690 0.214797
v 0.138896 -0.064047 0.214223
v 0.139334 -0.055924 0.214223
v 0.138896 -0.055924 0.215035
v 0.139206 -0.061668 0.214223
v 0.139149 -0.060614 0.214692
v 0.139206 -0.055924 0.214797
v 0.138896 -0.061668 0.214797
v 0.139477 0.052816 0.214267
v 0.139033 0.060947 0.214223
v 0.138896 0.052690 0.215035
v 0.139345 0.058564 0.214245
v 0.139208 0.057435 0.214701
v 0.138935 0.058474 0.214788
v 0.139249 0.052725 0.214819
v 0.129824 0.021665 0.196067
v 0.129386 0.021665 0.196867
v 0.129386 0.037809 0.195254
v 0.129824 0.029788 0.195254
v 0.129514 0.021665 0.196296
v 0.129513 0.028762 0.195963
v 0.129386 0.033081 0.196395
v 0.129514 0.032095 0.195254
v 0.129822 0.027408 0.195829
v 0.142785 0.040903 0.195598
v 0.142642 0.040776 0.197179
v 0.142357 0.026270 0.197163
v 0.141847 0.024445 0.196358
v 0.142346 0.032679 0.195587
v 0.142743 0.040839 0.196398
v 0.142563 0.032796 0.196394
v 0.142553 0.033157 0.197204
v 0.142191 0.024073 0.196596
v 0.142094 0.030243 0.196146
v 0.142656 0.035129 0.195592
v 0.139477 0.037938 0.214267
v 0.138896 0.029687 0.215035
v 0.139477 0.021691 0.214267
v 0.139248 0.033812 0.214810
v 0.139321 0.029752 0.214710
v 0.139248 0.025689 0.214810
v 0.139477 0.029814 0.214267
v 0.129386 0.029687 0.214223
v 0.129824 0.029687 0.215035
v 0.129514 0.029687 0.214797
v 0.129386 0.037809 0.167385
v 0.129824 0.037911 0.166584
v 0.129824 0.029788 0.167396
v 0.129514 0.037839 0.166814
v 0.129571 0.033163 0.166921
v 0.129824 0.032167 0.166822
v 0.129514 0.032095 0.167388
v 0.129386 0.052690 0.167385
v 0.129824 0.060913 0.167396
v 0.129824 0.052790 0.166584
v 0.129514 0.058463 0.167388
v 0.129571 0.057422 0.166921
v 0.129824 0.058534 0.166822
v 0.129514 0.052719 0.166814
v 0.142336 0.063802 0.167729
v 0.142785 0.055783 0.167740
v 0.142346 0.055681 0.166917
v 0.142653 0.061493 0.167735
v 0.142597 0.060425 0.167266
v 0.142656 0.055732 0.167163
v 0.142341 0.061424 0.167154
v 0.142785 0.040903 0.167740
v 0.142346 0.032679 0.167729
v 0.142346 0.040802 0.166917
v 0.142656 0.035129 0.167737
v 0.142599 0.036170 0.167267
v 0.142346 0.035058 0.167155
v 0.142656 0.040873 0.167163
v 0.139334 -0.053084 0.196867
v 0.138838 -0.053084 0.196055
v 0.139326 -0.033964 0.196105
v 0.139613 -0.038687 0.196896
v 0.139190 -0.053084 0.196295
v 0.139297 -0.044923 0.196303
v 0.138981 -0.044135 0.196070
v 0.139532 -0.037200 0.196327
v 0.139416 -0.045503 0.196882
v 0.139334 -0.053084 0.214223
v 0.139334 -0.036839 0.214223
v 0.138896 -0.044961 0.215035
v 0.139334 -0.044961 0.214223
v 0.139260 -0.044961 0.214692
v 0.139206 -0.040900 0.214797
v 0.139206 -0.049023 0.214797
v 0.129824 -0.044961 0.215035
v 0.129386 -0.044961 0.214223
v 0.129514 -0.044961 0.214797
v 0.129725 -0.044961 0.196055
v 0.129386 -0.044961 0.196867
v 0.129485 -0.044961 0.196293
vn -0.1386 0.9880 0.0684
vn 1.0000 -0.0000 -0.0000
vn 0.0138 0.0019 -0.9999
vn -0.2249 0.9744 -0.0000
vn -1.0000 -0.0000 -0.0000
vn 0.9957 -0.0235 0.0895
vn 0.0265 -0.0000 -0.9996
vn -0.0000 -0.0000 1.0000
vn 0.2249 -0.9744 -0.0000
vn -0.0000 -1.0000 -0.0000
vn 0.9833 -0.0000 0.1822
vn -0.6224 -0.0336 -0.7820
vn -0.9138 -0.1255 -0.3864
vn -0.9929 -0.0233 -0.1169
vn 0.8769 -0.1286 -0.4631
vn 0.5708 -0.0305 -0.8206
vn 0.9820 -0.0194 -0.1878
vn 0.9880 0.0176 0.1534
vn 0.9994 0.0177 0.0313
vn 0.9897 0.1003 0.1023
vn -0.8727 -0.1287 0.4710
vn -0.5610 -0.0303 0.8273
vn -0.9809 -0.0194 0.1938
vn -0.5610 0.0303 0.8273
vn -0.8727 0.1287 0.4710
vn -0.9809 0.0194 0.1938
vn 0.8727 -0.1287 0.4710
vn 0.9809 -0.0194 0.1938
vn 0.5610 -0.0303 0.8273
vn 0.9319 0.0202 0.3621
vn 0.7820 0.1222 0.6112
vn 0.4749 0.0307 0.8795
vn -0.5655 -0.0368 -0.8239
vn -0.9777 -0.0092 -0.2098
vn -0.9954 -0.0213 -0.0936
vn -0.8327 -0.1209 -0.5404
vn 0.9985 -0.0223 0.0505
vn 0.9972 -0.0170 0.0727
vn 0.9984 -0.0368 -0.0440
vn 0.6044 -0.0484 -0.7952
vn 0.9613 -0.1376 -0.2387
vn 0.9279 0.0025 0.3727
vn 0.6073 -0.0000 0.7945
vn 0.9282 -0.0025 0.3722
vn -0.9805 -0.0196 -0.1956
vn -0.5406 -0.0308 -0.8407
vn -0.8620 -0.1336 -0.4890
vn -0.9808 0.0194 -0.1939
vn -0.8767 0.1268 -0.4641
vn -0.5506 0.0305 -0.8342
vn 0.8662 0.1330 -0.4817
vn 0.9808 0.0198 -0.1941
vn 0.5699 0.0303 -0.8211
vn 0.9812 -0.0192 -0.1920
vn 0.8822 -0.1241 -0.4543
vn 0.5803 -0.0298 -0.8138
vn 0.9734 -0.0113 -0.2287
vn 0.5729 -0.0072 -0.8196
vn 0.5836 -0.0162 -0.8119
vn 0.9749 -0.0284 -0.2208
vn 0.9797 -0.0027 0.2002
vn 0.9797 0.0027 0.2002
vn 0.6855 -0.0000 0.7281
vn -0.0000 -0.2347 -0.9721
vn -0.0000 -0.0414 -0.9991
vn 0.9735 0.0035 -0.2285
vn 0.5909 0.0097 -0.8067
vn 0.9916 -0.1292 -0.0000
vn 0.9998 -0.0224 -0.0000
vn 0.9706 0.1318 0.2013
vn 0.9823 0.0229 0.1858
vn 0.6088 -0.0000 0.7933
vn 0.9759 -0.0000 0.2182
vn -0.0000 -0.2347 0.9721
vn -0.0000 -0.0414 0.9991
vn -0.0017 0.2287 0.9735
vn 0.0004 0.0420 0.9991
vn -0.9759 -0.0000 0.2182
vn -0.6088 -0.0000 0.7933
vn -0.9921 -0.1252 -0.0006
vn -0.9997 -0.0241 -0.0006
vn -0.9919 0.1273 0.0005
vn -0.9998 0.0223 -0.0000
vn -0.9808 0.0002 -0.1952
vn -0.6476 0.0007 -0.7620
vn 0.9918 -0.0000 0.1278
vn 0.9986 -0.0000 0.0521
vn 0.5314 -0.0002 0.8471
vn 0.9231 -0.0001 0.3845
vn 0.9839 -0.0053 0.1789
vn 0.9856 -0.0134 0.1687
vn 0.0791 -0.2324 -0.9694
vn 0.0342 -0.0396 -0.9986
vn -0.9756 -0.0000 -0.2194
vn -0.5953 -0.0000 -0.8035
vn -0.0284 0.2346 -0.9717
vn 0.0170 0.0414 -0.9990
vn 0.9762 -0.0000 -0.2169
vn 0.6218 -0.0000 -0.7832
vn 0.0361 -0.0414 -0.9985
vn 0.0797 -0.2339 -0.9690
vn 0.9997 0.0230 -0.0000
vn 0.9907 0.1363 -0.0000
vn -0.9998 0.0222 -0.0000
vn -0.9921 0.1255 -0.0000
vn 0.9921 -0.1255 -0.0000
vn 0.9998 -0.0222 -0.0000
vn -0.9911 -0.1331 -0.0000
vn -0.9997 -0.0225 -0.0000
vn 0.9816 -0.0412 -0.1866
vn 0.5583 -0.0206 -0.8294
vn 0.5732 -0.0002 0.8194
vn 0.9525 -0.0015 0.3046
vn -0.9879 0.0008 -0.1552
vn -0.6874 0.0005 -0.7263
vn 0.9998 -0.0132 0.0113
vn 1.0000 -0.0052 0.0024
vn 0.0006 0.0006 -1.0000
vt 0.391263 0.008631
vt 0.135699 0.738982
vt 0.391263 0.989301
vt 0.125000 0.740176
vt 0.375000 0.009824
vt 0.375000 0.004152
vt 0.129522 0.750000
vt 0.381874 1.000000
vt 0.135699 0.750000
vt 0.375000 0.989301
vt 0.391263 1.000000
vt 0.391263 0.000000
vt 0.875000 0.741820
vt 0.608737 1.000000
vt 0.625000 1.000000
vt 0.875000 0.750000
vt 0.135699 0.511017
vt 0.391263 0.239321
vt 0.391263 0.260699
vt 0.125000 0.510848
vt 0.375000 0.239152
vt 0.125000 0.504585
vt 0.381874 0.250000
vt 0.375000 0.254522
vt 0.391263 0.250000
vt 0.135699 0.500000
vt 0.375000 0.260699
vt 0.608735 0.260313
vt 0.608737 0.250000
vt 0.875000 0.508382
vt 0.608608 0.250000
vt 0.618023 0.250000
vt 0.625000 0.250000
vt 0.874136 0.500000
vt 0.880526 0.500757
vt 0.625000 0.250000
vt 0.875000 0.500000
vt 0.868161 0.500000
vt 0.625000 0.256839
vt 0.364301 0.738983
vt 0.391263 0.738983
vt 0.391263 0.760699
vt 0.375000 0.738982
vt 0.377291 0.749955
vt 0.391263 0.750000
vt 0.364301 0.750000
vt 0.375000 0.760699
vt 0.608737 0.738983
vt 0.635731 0.739584
vt 0.608737 0.760699
vt 0.625000 0.738982
vt 0.624216 0.748448
vt 0.635699 0.750000
vt 0.625000 0.760699
vt 0.608737 0.750000
vt 0.364301 0.511018
vt 0.391263 0.489301
vt 0.391263 0.511018
vt 0.364301 0.500000
vt 0.375000 0.489301
vt 0.375784 0.501552
vt 0.391263 0.500000
vt 0.375000 0.511018
vt 0.608735 0.489687
vt 0.635851 0.510419
vt 0.608737 0.511018
vt 0.634528 0.500000
vt 0.625000 0.490472
vt 0.622746 0.500065
vt 0.625000 0.510037
vt 0.608807 0.500000
vt 0.546471 0.008957
vt 0.546940 0.000076
vt 0.546617 0.989301
vt 0.578942 1.010546
vt 0.578942 1.000000
vt 0.562679 0.008180
vt 0.546617 1.000000
vt 0.546617 0.000000
vt 0.560827 0.000000
vt 0.562679 1.000000
vt 0.562679 0.002349
vt 0.569474 0.995524
vt 0.569537 -0.000966
vt 0.569475 1.000000
vt 0.562679 0.000000
vt 0.562679 1.000000
vt 0.562679 0.008070
vt 0.578942 0.250000
vt 0.578944 0.260313
vt 0.550016 0.260553
vt 0.546888 0.239019
vt 0.562679 0.241820
vt 0.578815 0.250000
vt 0.561915 0.249472
vt 0.562679 0.261290
vt 0.542444 0.250000
vt 0.562679 0.237053
vt 0.562679 0.250000
vt 0.578944 0.489687
vt 0.562679 0.511018
vt 0.547095 0.489582
vt 0.570939 0.500000
vt 0.562722 0.498735
vt 0.554674 0.500000
vt 0.562679 0.489687
vt 0.562679 0.760699
vt 0.562679 0.738983
vt 0.562679 0.750000
vt 0.578942 1.000000
vt 0.578943 0.008180
vt 0.562679 0.008180
vt 0.579002 1.000000
vt 0.579002 0.000000
vt 0.569638 1.000000
vt 0.562679 0.003550
vt 0.562679 0.000000
vt 0.562679 0.008244
vt 0.562679 0.000000
vt 0.562679 1.000000
vt 0.608737 1.000000
vt 0.875000 0.741820
vt 0.608735 0.008180
vt 0.625000 1.000000
vt 0.875000 0.750000
vt 0.625000 1.000000
vt 0.875000 0.746536
vt 0.618212 0.000000
vt 0.875000 0.741816
vt 0.625000 0.008184
vt 0.608795 1.000000
vt 0.608795 0.000000
vt 0.875000 0.508374
vt 0.608737 0.250000
vt 0.608735 0.241820
vt 0.625000 0.250000
vt 0.875000 0.500000
vt 0.875000 0.500000
vt 0.618031 0.250000
vt 0.625000 0.246509
vt 0.608635 0.250000
vt 0.875000 0.508269
vt 0.625000 0.241731
vt 0.578942 0.250000
vt 0.562679 0.241820
vt 0.578943 0.241820
vt 0.562679 0.250000
vt 0.564942 0.248878
vt 0.562679 0.241885
vt 0.578883 0.250000
vt 0.396950 0.260699
vt 0.396950 0.250000
vt 0.396950 0.237538
vt 0.434506 0.239587
vt 0.425766 0.260630
vt 0.396950 0.250000
vt 0.413214 0.250817
vt 0.414869 0.250194
vt 0.414827 0.240480
vt 0.414869 0.241122
vt 0.425702 0.250000
vt 0.413214 0.260891
vt 0.396950 0.489301
vt 0.428803 0.489406
vt 0.413214 0.511018
vt 0.413214 0.489301
vt 0.413214 0.498493
vt 0.421345 0.500000
vt 0.405082 0.500000
vt 0.413214 0.738982
vt 0.413214 0.760699
vt 0.413214 0.750000
vt 0.413214 0.008536
vt 0.413214 0.989301
vt 0.413214 1.000000
vt 0.413214 0.000000
s 0
f 47/65/1 20/30/1 8/13/1 33/49/1
f 19/29/2 62/89/2 104/144/2 98/134/2
f 130/173/3 53/72/3 65/92/3 113/154/3 117/159/3
f 8/13/4 20/30/4 97/133/4 91/122/4
f 27/42/5 128/171/5 131/174/5 3/3/5
f 13/19/2 111/151/2 120/163/2 40/57/2
f 114/155/6 64/91/6 75/102/6 121/164/6
f 84/111/7 92/123/7 99/135/7 106/146/7
f 122/165/8 74/101/8 81/108/8 127/170/8
f 66/93/9 56/77/9 85/112/9 105/145/9
f 41/58/8 122/165/8 127/170/8 26/41/8
f 80/107/5 34/50/5 9/14/5 55/75/5 59/83/5 54/74/5
f 128/171/5 80/107/5 54/74/5 131/174/5
f 11/17/10 39/56/10 25/40/10 2/2/10
f 63/90/11 18/28/11 46/64/11 73/100/11
f 74/101/8 48/66/8 32/48/8 81/108/8
f 55/76/5 9/14/5 90/121/5 83/110/5
f 1/1/12 4/5/12 5/6/12 7/12/12
f 2/2/13 6/9/13 5/7/13 4/4/13
f 3/3/14 7/11/14 5/8/14 6/10/14
f 11/17/15 14/20/15 15/22/15 17/26/15
f 12/18/16 16/25/16 15/23/16 14/21/16
f 13/19/17 17/27/17 15/24/17 16/25/17
f 18/28/18 21/31/18 22/32/18 24/39/18
f 19/29/19 23/36/19 22/33/19 21/31/19
f 20/30/20 24/38/20 22/34/20 23/35/20
f 25/40/21 28/43/21 29/44/21 31/46/21
f 26/41/22 30/45/22 29/44/22 28/43/22
f 27/42/23 31/47/23 29/44/23 30/45/23
f 32/48/24 35/51/24 36/52/24 38/55/24
f 33/49/25 37/53/25 36/52/25 35/51/25
f 34/50/26 38/55/26 36/52/26 37/54/26
f 39/56/27 42/59/27 43/61/27 45/63/27
f 40/57/28 44/62/28 43/61/28 42/60/28
f 41/58/29 45/63/29 43/61/29 44/62/29
f 46/64/30 49/68/30 50/69/30 52/71/30
f 47/65/31 51/70/31 50/69/31 49/67/31
f 48/66/32 52/71/32 50/69/32 51/70/32
f 53/72/33 57/79/33 58/80/33 61/88/33
f 54/73/34 59/84/34 58/80/34 57/79/34
f 55/76/35 60/87/35 58/81/35 59/85/35
f 56/77/36 61/88/36 58/82/36 60/86/36
f 62/89/37 67/94/37 68/95/37 72/99/37
f 63/90/38 69/96/38 68/95/38 67/94/38
f 64/91/39 70/97/39 68/95/39 69/96/39
f 65/92/40 71/98/40 68/95/40 70/97/40
f 66/93/41 72/99/41 68/95/41 71/98/41
f 73/100/42 76/103/42 77/104/42 79/106/42
f 74/101/43 78/105/43 77/104/43 76/103/43
f 75/102/44 79/106/44 77/104/44 78/105/44
f 83/110/45 86/113/45 87/115/45 89/120/45
f 84/111/46 88/118/46 87/116/46 86/114/46
f 85/112/47 89/119/47 87/117/47 88/118/47
f 90/121/48 93/124/48 94/126/48 96/131/48
f 91/122/49 95/129/49 94/127/49 93/125/49
f 92/123/50 96/132/50 94/128/50 95/130/50
f 97/133/51 100/137/51 101/138/51 103/142/51
f 98/134/52 102/141/52 101/139/52 100/136/52
f 99/135/53 103/143/53 101/140/53 102/141/53
f 104/144/54 107/147/54 108/148/54 110/150/54
f 105/145/55 109/149/55 108/148/55 107/147/55
f 106/146/56 110/150/56 108/148/56 109/149/56
f 111/151/57 115/156/57 116/157/57 119/162/57
f 112/152/58 117/158/58 116/157/58 115/156/58
f 113/154/59 118/161/59 116/157/59 117/159/59
f 114/155/60 119/162/60 116/157/60 118/161/60
f 120/163/61 123/166/61 124/167/61 126/169/61
f 121/164/62 125/168/62 124/167/62 123/166/62
f 122/165/63 126/169/63 124/167/63 125/168/63
f 11/17/64 2/2/64 4/4/64 14/20/64
f 14/21/65 4/5/65 1/1/65 12/18/65
f 111/151/66 13/19/66 16/25/66 115/156/66
f 115/156/67 16/25/67 12/18/67 112/153/67
f 39/56/68 11/17/68 17/26/68 42/59/68
f 42/60/69 17/27/69 13/19/69 40/57/69
f 20/30/70 47/65/70 49/67/70 24/38/70
f 24/39/71 49/68/71 46/64/71 18/28/71
f 122/165/72 41/58/72 44/62/72 126/169/72
f 126/169/73 44/62/73 40/57/73 120/163/73
f 25/40/74 39/56/74 45/63/74 28/43/74
f 28/43/75 45/63/75 41/58/75 26/41/75
f 47/65/76 33/49/76 35/51/76 51/70/76
f 51/70/77 35/51/77 32/48/77 48/66/77
f 128/171/78 27/42/78 30/45/78 129/172/78
f 129/172/79 30/45/79 26/41/79 127/170/79
f 2/2/80 25/40/80 31/46/80 6/9/80
f 6/10/81 31/47/81 27/42/81 3/3/81
f 33/49/82 8/13/82 10/16/82 37/53/82
f 37/54/83 10/15/83 9/14/83 34/50/83
f 131/174/84 54/74/84 57/78/84 132/175/84
f 132/176/85 57/79/85 53/72/85 130/173/85
f 18/28/86 63/90/86 67/94/86 21/31/86
f 21/31/87 67/94/87 62/89/87 19/29/87
f 48/66/88 74/101/88 76/103/88 52/71/88
f 52/71/89 76/103/89 73/100/89 46/64/89
f 34/50/78 80/107/78 82/109/78 38/55/78
f 38/55/79 82/109/79 81/108/79 32/48/79
f 63/90/90 73/100/90 79/106/90 69/96/90
f 69/96/91 79/106/91 75/102/91 64/91/91
f 56/77/92 66/93/92 71/98/92 61/88/92
f 61/88/93 71/98/93 65/92/93 53/72/93
f 83/110/94 90/121/94 96/131/94 86/113/94
f 86/114/95 96/132/95 92/123/95 84/111/95
f 91/122/96 97/133/96 103/142/96 95/129/96
f 95/130/97 103/143/97 99/135/97 92/123/97
f 98/134/98 104/144/98 110/150/98 102/141/98
f 102/141/99 110/150/99 106/146/99 99/135/99
f 84/111/100 106/146/100 109/149/100 88/118/100
f 88/118/101 109/149/101 105/145/101 85/112/101
f 19/29/102 98/134/102 100/136/102 23/36/102
f 23/37/103 100/137/103 97/133/103 20/30/103
f 90/121/104 9/14/104 10/15/104 93/124/104
f 93/125/105 10/16/105 8/13/105 91/122/105
f 66/93/106 105/145/106 107/147/106 72/99/106
f 72/99/107 107/147/107 104/144/107 62/89/107
f 85/112/108 56/77/108 60/86/108 89/119/108
f 89/120/109 60/87/109 55/76/109 83/110/109
f 64/91/110 114/155/110 118/161/110 70/97/110
f 70/97/111 118/161/111 113/154/111 65/92/111
f 74/101/112 122/165/112 125/168/112 78/105/112
f 78/105/113 125/168/113 121/164/113 75/102/113
f 80/107/78 128/171/78 129/172/78 82/109/78
f 82/109/79 129/172/79 127/170/79 81/108/79
f 3/3/114 131/174/114 132/175/114 7/11/114
f 7/12/115 132/176/115 130/173/115 1/1/115
f 114/155/116 121/164/116 123/166/116 119/162/116
f 119/162/117 123/166/117 120/163/117 111/151/117
f 1/1/118 130/173/118 117/160/118 112/153/118 12/18/118
